<svg xmlns="http://www.w3.org/2000/svg" viewBox="0 0 1576 511.96"><defs><style>.cls-1{font-size:160px;font-family:GenJyuuGothicL-Monospace-Bold, Gen Jyuu Gothic L Monospace;font-weight:700;}</style></defs><g id="repeat"><path d="M0,224a32,32,0,0,0,64,0,96,96,0,0,1,96-96H320v32a32.07,32.07,0,0,0,54.7,22.7l64-64a32,32,0,0,0,0-45.3l-64-64A32.07,32.07,0,0,0,320,32V64H160A160,160,0,0,0,0,224Zm512,64a32,32,0,0,0-64,0,96,96,0,0,1-96,96H192V352a32.07,32.07,0,0,0-54.7-22.7l-64,64a32,32,0,0,0,0,45.3l64,64A32.07,32.07,0,0,0,192,479.9V448H352A160,160,0,0,0,512,288Z" transform="translate(0 -0.02)"/><path d="M532,224a32,32,0,0,0,64,0,96,96,0,0,1,96-96H852v32a32.07,32.07,0,0,0,54.7,22.7l64-64a32,32,0,0,0,0-45.3l-64-64A32.07,32.07,0,0,0,852,32V64H692A160,160,0,0,0,532,224Zm512,64a32,32,0,0,0-64,0,96,96,0,0,1-96,96H724V352a32.07,32.07,0,0,0-54.7-22.7l-64,64a32,32,0,0,0,0,45.3l64,64A32.07,32.07,0,0,0,724,479.9V448H884A160,160,0,0,0,1044,288Z" transform="translate(0 -0.02)"/></g><g id="mode"><text class="cls-1" transform="translate(748 299.02)">1</text><text class="cls-1" transform="translate(136 309.02)">ALL</text><path d="M1064,224a32,32,0,0,0,64,0,96,96,0,0,1,96-96h160v32a32.07,32.07,0,0,0,54.7,22.7l64-64a32,32,0,0,0,0-45.3l-64-64A32.07,32.07,0,0,0,1384,32V64H1224A160,160,0,0,0,1064,224Zm512,64a32,32,0,0,0-64,0,96,96,0,0,1-96,96H1256V352a32.07,32.07,0,0,0-54.7-22.7l-64,64a32,32,0,0,0,0,45.3l64,64a32.07,32.07,0,0,0,54.7-22.7V448h160A160,160,0,0,0,1576,288Z" transform="translate(0 -0.02)"/><text class="cls-1" transform="translate(1280 299.02)">x</text></g></svg>