<?xml version="1.0" standalone="no"?>
<!DOCTYPE svg PUBLIC "-//W3C//DTD SVG 20010904//EN"
 "http://www.w3.org/TR/2001/REC-SVG-20010904/DTD/svg10.dtd">
<svg version="1.0" xmlns="http://www.w3.org/2000/svg"
 width="512.000000pt" height="512.000000pt" viewBox="0 0 512.000000 512.000000"
 preserveAspectRatio="xMidYMid meet">
<metadata>
Created by potrace 1.14, written by Peter Selinger 2001-2017
</metadata>
<g transform="translate(0.000000,512.000000) scale(0.100000,-0.100000)"
fill="#000000" stroke="none">
<path d="M2443 5106 c-127 -32 -240 -119 -301 -234 -29 -55 -91 -268 -308
-1067 -15 -55 -40 -147 -56 -205 -16 -58 -31 -112 -33 -121 -2 -10 -18 -68
-35 -130 -18 -63 -38 -136 -45 -164 -8 -27 -37 -133 -65 -235 -29 -102 -56
-203 -62 -225 -5 -22 -11 -47 -14 -55 -5 -20 -136 -499 -170 -620 -14 -52 -28
-103 -31 -112 -4 -16 -22 -18 -197 -18 -207 0 -241 -6 -282 -52 -12 -12 -171
-321 -353 -686 -243 -488 -331 -673 -331 -698 0 -52 23 -98 66 -130 l37 -29
2281 -3 c1726 -2 2288 1 2311 9 72 28 113 97 101 170 -8 50 -656 1346 -688
1376 -40 38 -72 43 -272 43 -176 0 -194 2 -199 18 -3 9 -21 76 -41 147 -19 72
-47 173 -61 225 -15 52 -32 118 -40 145 -7 28 -41 151 -75 275 -34 124 -64
232 -65 240 -2 8 -18 65 -35 125 -18 61 -33 117 -35 125 -2 8 -29 107 -60 220
-31 113 -68 248 -82 300 -14 52 -38 140 -53 195 -15 55 -62 228 -105 385 -106
390 -132 481 -153 526 -54 119 -151 207 -277 249 -65 22 -205 28 -272 11z"/>
</g>
</svg>
